REM DIRINDEX 1\2\4,1\2\5,1\2\6,1\2\7,1\3\8,1\3\9
REM DIRNAME folder01,folder02,folder03,folder04,folder05,folder06,folder07,folder08,folder09
TITLE ""
FILE "Disc2Track11.mp3" MP3
  TRACK 01 AUDIO
    TITLE "0:"
    INDEX 01 00:00:00
  TRACK 02 AUDIO
    TITLE "8:cjc037_1265"
    INDEX 01 00:00:05
  TRACK 03 AUDIO
    TITLE "0:"
    INDEX 01 00:01:46
  TRACK 04 AUDIO
    TITLE "9:cjc037_1266"
    INDEX 01 00:01:52
  TRACK 05 AUDIO
    TITLE "0:"
    INDEX 01 00:03:27
  TRACK 06 AUDIO
    TITLE "8:cjc037_1267"
    INDEX 01 00:05:61
  TRACK 07 AUDIO
    TITLE "0:"
    INDEX 01 00:07:29
  TRACK 08 AUDIO
    TITLE "9:cjc037_1268"
    INDEX 01 00:07:35
  TRACK 09 AUDIO
    TITLE "0:"
    INDEX 01 00:09:47
  TRACK 10 AUDIO
    TITLE "8:cjc037_1269"
    INDEX 01 00:12:07
  TRACK 11 AUDIO
    TITLE "0:"
    INDEX 01 00:13:41
  TRACK 12 AUDIO
    TITLE "9:cjc037_1270"
    INDEX 01 00:13:45
  TRACK 13 AUDIO
    TITLE "0:"
    INDEX 01 00:15:38
  TRACK 14 AUDIO
    TITLE "8:cjc037_1271"
    INDEX 01 00:17:72
  TRACK 15 AUDIO
    TITLE "0:"
    INDEX 01 00:19:38
  TRACK 16 AUDIO
    TITLE "9:cjc037_1272"
    INDEX 01 00:19:42
  TRACK 17 AUDIO
    TITLE "0:"
    INDEX 01 00:21:68
  TRACK 18 AUDIO
    TITLE "8:cjc037_1273"
    INDEX 01 00:24:27
  TRACK 19 AUDIO
    TITLE "0:"
    INDEX 01 00:25:72
  TRACK 20 AUDIO
    TITLE "9:cjc037_1274"
    INDEX 01 00:26:01
  TRACK 21 AUDIO
    TITLE "0:"
    INDEX 01 00:28:00
  TRACK 22 AUDIO
    TITLE "8:cjc037_1275"
    INDEX 01 00:30:34
  TRACK 23 AUDIO
    TITLE "0:"
    INDEX 01 00:32:01
  TRACK 24 AUDIO
    TITLE "9:cjc037_1276"
    INDEX 01 00:32:07
  TRACK 25 AUDIO
    TITLE "0:"
    INDEX 01 00:34:14
  TRACK 26 AUDIO
    TITLE "8:cjc037_1277"
    INDEX 01 00:36:50
  TRACK 27 AUDIO
    TITLE "0:"
    INDEX 01 00:38:18
  TRACK 28 AUDIO
    TITLE "9:cjc037_1278"
    INDEX 01 00:38:22
  TRACK 29 AUDIO
    TITLE "0:"
    INDEX 01 00:40:32
  TRACK 30 AUDIO
    TITLE "8:cjc037_1279"
    INDEX 01 00:42:68
  TRACK 31 AUDIO
    TITLE "0:"
    INDEX 01 00:44:40
  TRACK 32 AUDIO
    TITLE "9:cjc037_1280"
    INDEX 01 00:44:46
  TRACK 33 AUDIO
    TITLE "0:"
    INDEX 01 00:46:31
  TRACK 34 AUDIO
    TITLE "8:cjc037_1281"
    INDEX 01 00:48:63
  TRACK 35 AUDIO
    TITLE "0:"
    INDEX 01 00:50:33
  TRACK 36 AUDIO
    TITLE "9:cjc037_1282"
    INDEX 01 00:50:39
  TRACK 37 AUDIO
    TITLE "0:"
    INDEX 01 00:53:00
  TRACK 38 AUDIO
    TITLE "8:cjc037_1283"
    INDEX 01 00:55:34
  TRACK 39 AUDIO
    TITLE "0:"
    INDEX 01 00:56:74
  TRACK 40 AUDIO
    TITLE "9:cjc037_1284"
    INDEX 01 00:57:05
  TRACK 41 AUDIO
    TITLE "0:"
    INDEX 01 00:59:28
  TRACK 42 AUDIO
    TITLE "8:cjc037_1285"
    INDEX 01 01:01:64
  TRACK 43 AUDIO
    TITLE "0:"
    INDEX 01 01:03:29
  TRACK 44 AUDIO
    TITLE "9:cjc037_1286"
    INDEX 01 01:03:35
  TRACK 45 AUDIO
    TITLE "0:"
    INDEX 01 01:06:14
  TRACK 46 AUDIO
    TITLE "8:cjc037_1287"
    INDEX 01 01:08:50
  TRACK 47 AUDIO
    TITLE "0:"
    INDEX 01 01:10:18
  TRACK 48 AUDIO
    TITLE "9:cjc037_1288"
    INDEX 01 01:10:26
  TRACK 49 AUDIO
    TITLE "0:"
    INDEX 01 01:12:21
  TRACK 50 AUDIO
    TITLE "8:cjc037_1289"
    INDEX 01 01:14:55
  TRACK 51 AUDIO
    TITLE "0:"
    INDEX 01 01:16:03
  TRACK 52 AUDIO
    TITLE "9:cjc037_1290"
    INDEX 01 01:16:11
  TRACK 53 AUDIO
    TITLE "0:"
    INDEX 01 01:17:61
  TRACK 54 AUDIO
    TITLE "8:cjc037_1291"
    INDEX 01 01:20:20
  TRACK 55 AUDIO
    TITLE "0:"
    INDEX 01 01:21:57
  TRACK 56 AUDIO
    TITLE "9:cjc037_1292"
    INDEX 01 01:21:63
  TRACK 57 AUDIO
    TITLE "0:"
    INDEX 01 01:23:52
  TRACK 58 AUDIO
    TITLE "8:cjc037_1293"
    INDEX 01 01:26:13
  TRACK 59 AUDIO
    TITLE "0:"
    INDEX 01 01:27:50
  TRACK 60 AUDIO
    TITLE "9:cjc037_1294"
    INDEX 01 01:27:57
  TRACK 61 AUDIO
    TITLE "0:"
    INDEX 01 01:31:20
  TRACK 62 AUDIO
    TITLE "8:cjc037_1295"
    INDEX 01 01:33:54
  TRACK 63 AUDIO
    TITLE "0:"
    INDEX 01 01:35:20
  TRACK 64 AUDIO
    TITLE "9:cjc037_1296"
    INDEX 01 01:35:24
  TRACK 65 AUDIO
    TITLE "0:"
    INDEX 01 01:37:64
